<svg width="106" height="118" viewBox="0 0 106 118" fill="none" xmlns="http://www.w3.org/2000/svg">
<g clip-path="url(#clip0_2_1407)">
<path d="M7.59392 11.0264L100.007 11.1584L100.905 11.8975V105.261L100.007 106H7.25078C6.64366 105.578 5.90457 105.076 6.01015 104.205V12.6894C6.01015 12.0031 6.96041 11.1584 7.59392 11V11.0264ZM51.5436 14.933H9.96958V102.225H51.5436V14.933ZM97.2883 14.933H55.7142V102.225H97.2883V14.933Z" fill="#030304"/>
<path d="M14.483 44.7344C14.8261 44.3913 15.3805 44.1537 15.9084 44.1801C25.4902 44.8664 36.2335 43.309 45.6569 44.1801C47.5575 44.3649 47.7422 45.3943 47.8742 47.0837V95.6263C47.7158 97.3421 47.2143 98.134 45.4458 98.2923C36.0223 97.6324 25.4638 99.137 16.1724 98.2923C14.8525 98.1604 14.0079 97.4741 13.9551 96.0751L14.0343 45.4999C14.1662 45.2359 14.2982 44.9192 14.5094 44.708L14.483 44.7344ZM43.6508 48.1395H17.8881V94.1217H43.6508V48.1395Z" fill="#030304"/>
<path d="M15.4867 18.9188L45.3936 18.866C47.1885 19.0244 47.69 19.8163 47.822 21.5321C48.1652 25.5971 48.1916 33.5159 47.822 37.581C47.69 38.98 47.2149 40.2998 45.6048 40.247C36.1021 39.5607 25.4644 41.1181 16.0938 40.247C14.8532 40.1414 14.0349 39.5343 13.9029 38.2673C14.2988 32.7241 13.4014 26.5209 13.9029 21.0569C14.0085 19.9483 14.4044 19.3148 15.4603 18.9188H15.4867ZM43.6514 23.063H17.8887V36.2876H43.6514V23.063Z" fill="#030304"/>
<path d="M92.8009 44.7343C93.012 44.9455 93.1704 45.2622 93.276 45.5262L93.3552 96.1014C93.3288 97.5004 92.4577 98.1867 91.1379 98.3186C81.8464 99.1633 71.288 97.6587 61.8645 98.3186C60.0696 98.1603 59.568 97.3684 59.436 95.6526V47.11C59.568 45.4206 59.7528 44.3912 61.6533 44.2064C71.0768 43.3353 81.82 44.8927 91.4019 44.2064C91.9034 44.2064 92.4577 44.4176 92.8273 44.7607L92.8009 44.7343ZM89.3957 48.1394H63.633V94.1216H89.3957V48.1394Z" fill="#030304"/>
<path d="M61.2576 18.9189L91.1645 18.866C92.2996 18.8133 93.2762 19.7371 93.3554 20.8458C92.9595 26.389 93.8569 32.5921 93.3554 38.0561C93.2234 39.4815 92.5635 40.1414 91.1381 40.2734C81.7675 41.1445 71.1298 39.5871 61.6272 40.2734C60.149 40.3262 59.5682 39.1119 59.4363 37.8185C59.0139 34.0439 59.0931 25.4123 59.4363 21.5585C59.5418 20.2651 59.8586 19.3148 61.2312 18.9453L61.2576 18.9189ZM89.396 23.0631H63.6333V36.2876H89.396V23.0631Z" fill="#030304"/>
</g>
<defs>
<clipPath id="clip0_2_1407">
<rect width="106" height="118" fill="white"/>
</clipPath>
</defs>
</svg>
