<svg width="106" height="118" viewBox="0 0 106 118" fill="none" xmlns="http://www.w3.org/2000/svg">
<g clip-path="url(#clip0_2_1423)">
<path d="M95.1505 15.7813L9.77259 15.668C9.20605 15.7813 8.32792 16.5745 8.32792 17.226V101.754C8.21461 102.547 8.89445 103 9.46099 103.397H95.1505L95.972 102.717V16.4612L95.1505 15.7813ZM54.2178 19.2656H92.6294V99.9412H54.2178L51.98 99.7712L50.3653 99.9412H11.9538V19.2656H50.3653" fill="#030304"/>
<path d="M45.7196 66.7133V92.2927H19.7436V66.7133L15.7778 66.8549V83.9362C15.7778 95.3803 16.656 96.0318 17.9873 96.1735C27.3636 96.9383 38.0146 95.5503 47.5042 96.1735C49.3171 96.0035 49.7987 95.267 49.9403 93.709V66.7133H45.7196Z" fill="#030304"/>
<path d="M85.2077 66.7133V91.6978H58.1553V66.7133H54.0195V93.5391C54.0195 94.8138 54.926 95.4653 56.314 95.5786C66.0585 96.3435 77.1628 94.9554 87.0489 95.5786C88.9185 95.4087 89.4284 94.6721 89.5984 93.1142V66.7133H85.2077Z" fill="#030304"/>
<path d="M93.2246 22.9482H11.6992V30.5682H28.5822C28.7521 30.5682 30.1968 31.1631 30.4234 31.333C32.0664 32.5794 30.7634 35.4121 29.2054 35.4121H11.6992V42.7772H93.2246V35.4121H38.9216C37.9301 35.4121 36.7404 33.8825 36.7404 33.0327C36.7404 31.8713 38.1851 30.5682 39.5448 30.5682H93.2529V22.9482H93.2246Z" fill="#030304"/>
<path d="M93.2246 47.3661H11.6992V54.4762H66.3139C66.4838 54.4762 67.9285 55.0711 68.1551 55.241C69.7981 56.4591 68.4101 59.3201 66.9371 59.3201H11.7276V66.6851H93.2529V59.3201H76.6816C75.6901 59.3201 74.3871 57.7904 74.3871 56.9123C74.3871 56.0342 76.0017 54.5045 76.9932 54.5045H93.2813V47.3944L93.2246 47.3661Z" fill="#030304"/>
<path d="M17.7891 17.7926V66.7135V17.7926Z" stroke="#030304" stroke-width="1.5" stroke-miterlimit="10"/>
<path d="M87.106 17.7926V66.7135V17.7926Z" stroke="#030304" stroke-width="1.5" stroke-miterlimit="10"/>
<path d="M74.3865 80.3672C76.0761 80.3672 77.4458 78.9975 77.4458 77.3079C77.4458 75.6182 76.0761 74.2485 74.3865 74.2485C72.6969 74.2485 71.3271 75.6182 71.3271 77.3079C71.3271 78.9975 72.6969 80.3672 74.3865 80.3672Z" stroke="#030304" stroke-miterlimit="10"/>
<path d="M75.4063 66.1186H73.3667V73.257H75.4063V66.1186Z" fill="black" stroke="#030304" stroke-miterlimit="10"/>
<path d="M104.414 7H1.58631C0.710212 7 0 7.6268 0 8.4V14.6C0 15.3732 0.710212 16 1.58631 16H104.414C105.29 16 106 15.3732 106 14.6V8.4C106 7.6268 105.29 7 104.414 7Z" stroke="#030304" stroke-width="2" stroke-miterlimit="10"/>
</g>
<defs>
<clipPath id="clip0_2_1423">
<rect width="106" height="118" fill="white"/>
</clipPath>
</defs>
</svg>
