<svg width="106" height="118" viewBox="0 0 106 118" fill="none" xmlns="http://www.w3.org/2000/svg">
<g clip-path="url(#clip0_2_1366)">
<path d="M19.1806 109C16.246 107.925 16.3912 104.874 16.5946 102.172C16.798 99.9054 17.9312 98.3654 19.9652 97.4065V13.143C19.9652 10.7313 21.4761 8.78454 23.7425 8.05813L83.5115 8C85.7779 8.6683 87.376 10.5279 87.4632 12.9396V97.4937C90.9499 98.7431 91.1533 102.753 90.8046 105.92C90.6303 107.46 89.5552 108.39 88.2477 108.971H19.1516L19.1806 109ZM83.9473 14.6539C83.9473 12.8233 84.3251 11.5158 82.0877 11.2834H25.2244C23.1033 11.5449 23.5682 12.9686 23.5391 14.6539H83.9473ZM47.0167 18.0244V23.0512C48.5567 23.6323 50.0676 23.952 51.5495 24.8527C56.5181 27.8455 60.4988 37.5794 53.0313 39.933C48.208 39.7005 43.0069 40.3107 38.2416 39.933C34.4062 39.6424 33.0987 36.3881 33.6217 32.9304C34.3481 28.3976 37.7477 24.9399 41.9899 23.5452C42.5711 23.3709 43.2393 23.458 43.6461 23.0512V18.315L43.3556 18.0244H23.5101V97.1741H67.1237V92.1473C67.1237 92.1473 67.5886 91.1013 67.7048 90.956C68.6637 89.91 70.6686 90.8398 70.6686 91.7406V97.1741H83.8893V18.0244H70.7557C70.2327 18.0244 70.6686 19.5063 70.6686 19.8841C71.2207 41.0952 70.2327 62.4226 70.6686 83.6628C70.6976 85.1157 68.8671 86.1036 67.7629 85.0866C67.6467 84.9704 67.1237 83.9534 67.1237 83.8663V18.0244H46.9876H47.0167ZM44.2272 26.567C40.7114 26.9738 37.4862 30.0538 37.0213 33.5696C36.7888 35.313 36.876 36.3881 38.8228 36.5915C43.0069 36.9983 47.8012 36.2719 52.0725 36.5915C54.0774 36.2428 53.8449 34.5576 53.4962 32.9885C52.5374 28.8335 48.4404 26.0731 44.2272 26.567ZM19.9942 102.404C19.878 103.305 20.0814 104.438 19.9942 105.368L20.2848 105.659H87.2017L87.4922 105.368V102.404C87.4922 101.068 86.2138 100.516 85.0224 100.516H22.6384C21.1855 100.574 20.1976 100.806 19.9942 102.404Z" fill="#030304"/>
<path d="M53.2636 79.9147C52.421 80.7573 50.6776 80.4087 50.4161 79.2464C50.2708 78.6072 50.2708 75.411 50.4161 74.8008C50.7067 73.5223 52.6825 73.2317 53.4379 74.2778C53.961 75.0042 53.961 79.2464 53.2636 79.9147Z" fill="#030304"/>
<path d="M37.4276 53.7929C38.3574 52.9502 40.0136 53.4442 40.2751 54.6646C40.4204 55.3619 40.3913 58.1804 40.217 58.8777C39.7812 60.6792 37.2532 60.534 36.9627 58.9649C36.8464 58.2966 36.8464 55.5363 36.9627 54.8099C36.9917 54.4902 37.1951 54.0253 37.4276 53.7929Z" fill="#030304"/>
<path d="M45.0119 78.6359C45.7092 78.5197 46.639 79.0137 46.9005 79.6529C47.162 80.2922 47.1621 83.6917 46.9587 84.36C46.5228 85.7838 44.3145 85.7838 43.7915 84.5344C43.6172 84.1276 43.5881 80.234 43.7334 79.7401C43.8206 79.3914 44.6632 78.7231 45.0119 78.6359Z" fill="#030304"/>
<path d="M46.5805 58.9359C47.1907 59.6042 47.1907 62.9457 46.9873 63.8755C46.6096 65.706 44.0526 65.5898 43.733 64.0789C43.5877 63.4397 43.5877 60.2725 43.733 59.6333C43.9945 58.4129 45.796 58.0933 46.5805 58.9649V58.9359Z" fill="#030304"/>
<path d="M38.2998 43.3325C39.0552 43.2162 39.8688 43.594 40.1594 44.3204C40.4209 44.9306 40.4208 47.9524 40.2756 48.6788C39.8978 50.5384 37.2537 50.3932 36.9631 48.9113C36.8469 48.3011 36.876 45.0177 36.9922 44.4075C37.1084 43.7973 37.6896 43.4196 38.2707 43.3325H38.2998Z" fill="#030304"/>
<path d="M44.8086 48.4464C45.6803 48.243 46.6392 48.5045 46.9297 49.4052C47.1331 49.9864 47.1331 53.3278 46.9297 53.938C46.4648 55.478 43.8788 55.6524 43.6463 53.6475C43.5011 52.369 43.2395 48.795 44.7795 48.4464H44.8086Z" fill="#030304"/>
<path d="M51.7234 53.386C52.4207 53.2698 53.3505 53.7638 53.612 54.403C53.8736 55.0423 53.8735 58.4419 53.6701 59.1102C53.1762 60.7373 50.6192 60.592 50.3868 58.6162C50.2415 57.2796 50.009 53.7348 51.7234 53.4151V53.386Z" fill="#030304"/>
<path d="M38.6485 63.4976C40.7406 63.5557 40.4791 66.9263 40.3338 68.4372C40.1304 70.6745 37.5444 70.7908 37.0504 69.3379C36.8761 68.8149 36.8761 64.8633 37.0504 64.3984C37.2248 63.9335 38.0965 63.4976 38.6195 63.4976H38.6485Z" fill="#030304"/>
<path d="M52.0724 63.5267C52.7407 63.5267 53.467 63.9335 53.6704 64.6018C53.8448 65.212 53.8448 68.5535 53.6704 69.1637C53.1474 70.878 50.5905 70.6456 50.3871 68.6697C50.2999 67.8852 50.2999 65.241 50.4743 64.6018C50.6486 63.9626 51.4041 63.5267 52.0724 63.5267Z" fill="#030304"/>
<path d="M45.0118 68.5826C45.7382 68.4373 46.6099 68.8731 46.8714 69.5705C47.1039 70.1516 47.133 73.435 46.9877 74.1032C46.6681 75.4689 44.3435 75.7304 43.8205 74.3938C43.588 73.7836 43.559 70.355 43.7043 69.6576C43.8205 69.1056 44.4598 68.6697 44.9828 68.5535L45.0118 68.5826Z" fill="#030304"/>
<path d="M39.869 74.1324C40.4501 74.7716 40.4791 78.1712 40.2758 79.072C39.9271 80.6701 37.3701 80.9316 36.9924 79.2754C36.8762 78.7233 36.8471 75.0912 36.9924 74.6263C37.283 73.6094 39.1426 73.3769 39.8399 74.1615L39.869 74.1324Z" fill="#030304"/>
<path d="M50.8521 43.7393C51.811 42.8676 53.4382 43.3616 53.6997 44.611C53.8449 45.2212 53.8449 48.2431 53.6997 48.8823C53.4091 50.1608 51.4332 50.4513 50.6778 49.4053C50.1838 48.7079 50.1548 44.3785 50.8231 43.7393H50.8521Z" fill="#030304"/>
<path d="M77.8746 62.8584V52.3981H74.8528C73.9811 52.3981 73.3999 50.1608 74.8818 49.8121C75.4629 49.6959 78.9788 49.6959 79.5599 49.8121C80.2572 49.9574 80.4316 50.5385 80.4897 51.1487C80.8675 55.2456 80.1992 59.8947 80.4897 64.0788C80.5188 64.7761 80.112 65.3282 79.4146 65.4444C78.7754 65.5316 75.2886 65.5607 74.7656 65.3863C73.429 64.9505 74.0101 62.8584 74.8528 62.8584H77.8746Z" fill="#030304"/>
</g>
<defs>
<clipPath id="clip0_2_1366">
<rect width="106" height="118" fill="white"/>
</clipPath>
</defs>
</svg>
