<svg width="106" height="118" viewBox="0 0 106 118" fill="none" xmlns="http://www.w3.org/2000/svg">
<g clip-path="url(#clip0_2_1355)">
<path d="M96.0901 27.5849L96.0072 103.581C95.6754 104.666 94.8183 104.917 93.7953 105L11.4582 104.889C10.6564 104.722 10.214 104.36 9.93749 103.553L9.85455 27.5571C7.53208 27.8909 4.629 26.4166 4.24192 23.9409C3.91013 21.9381 3.9378 13.8711 4.21428 11.7848C4.54606 9.3369 7.06208 7.94604 9.3569 8.00167H96.6431C98.8273 7.94604 101.371 9.28127 101.758 11.6179C102.09 13.6207 102.062 21.6877 101.786 23.774C101.426 26.361 98.5509 27.8909 96.1454 27.5571L96.0901 27.5849ZM8.36155 11.5345C7.55975 11.757 7.47679 12.2855 7.39384 13.0088C7.2003 15.2898 7.145 20.575 7.39384 22.8004C7.44914 23.3845 7.67033 23.9965 8.30624 24.1078H97.4173C98.0532 24.1356 98.4126 23.5514 98.4956 22.9673C98.7444 21.4373 98.7444 14.1493 98.4956 12.5915C98.385 11.9239 98.0532 11.5623 97.3896 11.4788H8.33392L8.36155 11.5345ZM17.7344 27.5849H13.283V101.551H92.6618V27.5849H88.2104V95.9316C88.2104 96.0985 86.9108 97.239 86.4961 97.0443H57.1335C55.8063 97.0165 55.0045 96.4323 55.0045 95.0971C55.0322 92.7883 55.5851 77.2663 55.5575 75.8755C55.8063 74.5681 57.0782 73.6501 58.2947 74.5402C58.4606 74.6515 58.4606 80.5209 58.4606 80.6322V93.5672H84.9754V76.7656L84.6713 76.4596H21.2734L20.9692 76.7656V93.5672H47.4841V75.4582C47.4841 75.4582 48.0094 74.6515 48.1753 74.5402C49.5025 73.5666 50.719 74.6793 50.8849 76.098C51.2443 78.8241 51.2167 92.3154 50.8849 95.0971C50.7467 96.4045 50.1107 96.9887 48.756 97.0443H19.3933C18.9786 97.2112 17.6791 96.0707 17.6791 95.9038V27.5571L17.7344 27.5849ZM84.9478 27.5849H20.9692V31.6462H84.9478V27.5849ZM84.9478 35.1234H20.9692V38.6005H84.9478V35.1234ZM84.9478 42.0498H20.9692V45.527H84.9478V42.0498ZM84.9478 48.9763H20.9692V52.4534H84.9478V48.9763ZM84.9478 55.9028H20.9692V59.3799H84.9478V55.9028ZM84.9478 62.8292H20.9692V66.3064H84.9478V62.8292ZM84.9478 73.205V69.8391L84.6437 69.5332H21.2458L20.9416 69.8391V73.205H84.9202H84.9478Z" fill="#030304"/>
</g>
<defs>
<clipPath id="clip0_2_1355">
<rect width="106" height="118" fill="white"/>
</clipPath>
</defs>
</svg>
