<svg width="106" height="118" viewBox="0 0 106 118" fill="none" xmlns="http://www.w3.org/2000/svg">
<g clip-path="url(#clip0_2_1391)">
<path d="M11.0034 11.2197L94.0741 11.2787L95.0177 12.2223V106.056L94.0741 107H10.8265L9.88282 106.056L9.79436 12.9595C9.76487 12.1338 10.2072 11.4851 10.9739 11.2491L11.0034 11.2197ZM52.465 14.4635H13.1266V103.727H52.465V14.4635ZM91.7739 14.4635H55.9742V103.727H91.7739V14.4635Z" fill="#030304"/>
<path d="M96.7577 6H9.2637C6.36473 6 4.01465 8.35008 4.01465 11.249V100.011C4.01465 102.91 6.36473 105.26 9.2637 105.26H96.7577C99.6567 105.26 102.007 102.91 102.007 100.011V11.249C102.007 8.35008 99.6567 6 96.7577 6Z" stroke="#030304" stroke-width="1.89" stroke-miterlimit="10"/>
<path d="M92.0393 65.391V56.3673L92.983 56.4263C93.6317 56.4263 94.0446 54.5095 92.983 54.2146C92.5701 54.0967 90.0341 54.0967 89.6212 54.2146C89.1199 54.3621 88.9725 54.8339 88.943 55.3647C88.6776 58.8739 89.1494 62.8844 88.943 66.4526C88.943 67.0423 89.2084 67.5437 89.7097 67.6322C90.1815 67.7206 92.6881 67.7206 93.0714 67.5732C94.0446 67.2193 93.6317 65.391 93.0124 65.391H92.0688H92.0393Z" fill="#030304"/>
<path d="M12.8615 56.9866V66.0103L11.9178 65.9513C11.269 65.9513 10.8562 67.8681 11.9178 68.163C12.3307 68.2809 14.8667 68.2809 15.2796 68.163C15.7809 68.0155 15.9284 67.5437 15.9578 67.0129C16.2232 63.5037 15.7514 59.4932 15.9578 55.925C15.9578 55.3352 15.6924 54.8339 15.1911 54.7454C14.7193 54.657 12.2127 54.657 11.8293 54.8044C10.8562 55.1583 11.2691 56.9866 11.8883 56.9866H12.832H12.8615Z" fill="#030304"/>
</g>
<defs>
<clipPath id="clip0_2_1391">
<rect width="106" height="118" fill="white"/>
</clipPath>
</defs>
</svg>
